<?xml version="1.0" encoding="UTF-8"?>
<svg xmlns="http://www.w3.org/2000/svg" xmlns:xlink="http://www.w3.org/1999/xlink" width="320pt" height="320pt" viewBox="0 0 320 320" version="1.1">
<g id="surface1">
<path style=" stroke:none;fill-rule:nonzero;fill:rgb(37.647059%,39.607843%,44.705882%);fill-opacity:1;" d="M 163.253906 281.894531 L 122.992188 281.894531 C 77.125 281.894531 39.941406 244.710938 39.941406 198.84375 L 39.941406 103.179688 C 39.941406 46.195312 86.136719 0 143.125 0 C 200.109375 0 246.304688 46.195312 246.304688 103.179688 L 246.304688 198.84375 C 246.304688 244.710938 209.121094 281.894531 163.253906 281.894531 Z M 163.253906 281.894531 "/>
<path style=" stroke:none;fill-rule:nonzero;fill:rgb(23.137255%,25.882353%,32.941176%);fill-opacity:1;" d="M 143.125 0 C 140.410156 0 137.722656 0.105469 135.0625 0.3125 C 188.28125 4.421875 230.183594 48.90625 230.183594 103.179688 L 230.183594 198.84375 C 230.183594 244.710938 193.003906 281.894531 147.136719 281.894531 L 163.253906 281.894531 C 209.121094 281.894531 246.304688 244.710938 246.304688 198.84375 L 246.304688 103.179688 C 246.304688 46.195312 200.109375 0 143.125 0 Z M 143.125 0 "/>
<path style=" stroke:none;fill-rule:nonzero;fill:rgb(97.647059%,76.078431%,58.431373%);fill-opacity:1;" d="M 231.496094 295.816406 L 54.453125 295.816406 L 55.945312 272.128906 C 57.054688 254.550781 69.4375 239.722656 86.539062 235.5 L 112.265625 229.144531 C 113.539062 228.828125 114.425781 227.691406 114.425781 226.382812 L 114.425781 168.796875 L 171.8125 168.796875 L 171.8125 226.453125 C 171.8125 227.761719 172.710938 228.902344 173.976562 229.214844 L 199.414062 235.5 C 216.515625 239.722656 228.894531 254.550781 230.003906 272.128906 Z M 231.496094 295.816406 "/>
<path style=" stroke:none;fill-rule:nonzero;fill:rgb(90.980392%,63.529412%,41.568627%);fill-opacity:1;" d="M 230.003906 272.128906 C 228.894531 254.550781 216.515625 239.722656 199.410156 235.5 L 173.976562 229.214844 C 172.710938 228.902344 171.8125 227.765625 171.8125 226.453125 L 171.8125 168.796875 L 157.21875 168.796875 L 157.21875 226.453125 C 157.21875 227.765625 158.117188 228.902344 159.382812 229.214844 L 184.816406 235.5 C 201.917969 239.722656 214.300781 254.550781 215.410156 272.128906 L 216.902344 295.816406 L 231.496094 295.816406 Z M 230.003906 272.128906 "/>
<path style=" stroke:none;fill-rule:nonzero;fill:rgb(90.980392%,63.529412%,41.568627%);fill-opacity:1;" d="M 114.429688 216.9375 C 124.078125 222.144531 134.050781 224.867188 143.125 224.867188 C 152.195312 224.867188 162.164062 222.144531 171.8125 216.9375 L 171.8125 168.796875 L 114.429688 168.796875 Z M 114.429688 216.9375 "/>
<path style=" stroke:none;fill-rule:nonzero;fill:rgb(97.647059%,76.078431%,58.431373%);fill-opacity:1;" d="M 217.121094 138.132812 C 208.21875 183.785156 171.320312 210.058594 143.125 210.058594 C 116.5625 210.058594 82.277344 186.75 70.953125 145.882812 C 121.429688 138.695312 163.976562 91.898438 174.625 64.742188 C 174.625 64.742188 174.625 124.546875 217.121094 138.132812 Z M 217.121094 138.132812 "/>
<path style=" stroke:none;fill-rule:nonzero;fill:rgb(90.980392%,63.529412%,41.568627%);fill-opacity:1;" d="M 197.835938 126.703125 C 195.441406 176.640625 163.917969 206.886719 138.484375 209.820312 C 140.050781 209.972656 141.601562 210.058594 143.125 210.058594 C 171.320312 210.058594 208.21875 183.785156 217.121094 138.132812 C 209.359375 135.652344 203.023438 131.625 197.835938 126.703125 Z M 197.835938 126.703125 "/>
<path style=" stroke:none;fill-rule:nonzero;fill:rgb(99.607843%,91.372549%,63.137255%);fill-opacity:1;" d="M 228.867188 22.117188 C 225.363281 35.023438 220.488281 39.898438 207.582031 43.402344 C 204.90625 44.128906 204.90625 47.933594 207.582031 48.660156 C 220.488281 52.167969 225.363281 57.042969 228.867188 69.949219 C 229.59375 72.625 233.398438 72.625 234.125 69.949219 C 237.632812 57.042969 242.507812 52.167969 255.414062 48.660156 C 258.089844 47.933594 258.089844 44.128906 255.414062 43.402344 C 242.507812 39.898438 237.632812 35.023438 234.125 22.117188 C 233.398438 19.441406 229.59375 19.441406 228.867188 22.117188 Z M 228.867188 22.117188 "/>
<path style=" stroke:none;fill-rule:nonzero;fill:rgb(99.607843%,91.372549%,63.137255%);fill-opacity:1;" d="M 252.199219 225.074219 L 218.519531 193.949219 C 212.066406 187.984375 214.214844 177.304688 222.46875 174.300781 L 263.984375 159.191406 C 272.242188 156.183594 280.75 162.984375 279.640625 171.703125 L 273.847656 217.195312 Z M 252.199219 225.074219 "/>
<path style=" stroke:none;fill-rule:nonzero;fill:rgb(99.215686%,79.215686%,40.392157%);fill-opacity:1;" d="M 263.984375 159.191406 L 253.460938 163.019531 C 260.066406 160.617188 267.507812 167.804688 267.15625 176.246094 L 265.316406 220.300781 L 273.847656 217.195312 L 279.640625 171.703125 C 280.75 162.984375 272.242188 156.183594 263.984375 159.191406 Z M 263.984375 159.191406 "/>
<path style=" stroke:none;fill-rule:nonzero;fill:rgb(86.666667%,65.882353%,29.019608%);fill-opacity:1;" d="M 265.804688 175.296875 C 264.964844 170.492188 262.914062 164.898438 260.21875 160.5625 L 251.160156 163.859375 C 253.03125 166.289062 255.59375 171.328125 256.566406 176.90625 L 258.691406 189.070312 C 259.136719 191.617188 261.5625 193.324219 264.113281 192.878906 C 266.664062 192.433594 268.371094 190.007812 267.925781 187.457031 Z M 265.804688 175.296875 "/>
<path style=" stroke:none;fill-rule:nonzero;fill:rgb(86.666667%,65.882353%,29.019608%);fill-opacity:1;" d="M 231.425781 187.804688 L 237.617188 198.488281 C 238.488281 199.988281 240.0625 200.824219 241.679688 200.824219 C 242.476562 200.824219 243.285156 200.621094 244.023438 200.191406 C 246.265625 198.894531 247.027344 196.023438 245.730469 193.785156 L 239.539062 183.101562 C 236.699219 178.203125 235.421875 172.699219 235.296875 169.632812 L 226.238281 172.929688 C 226.964844 177.984375 228.984375 183.585938 231.425781 187.804688 Z M 231.425781 187.804688 "/>
<path style=" stroke:none;fill-rule:nonzero;fill:rgb(99.215686%,48.235294%,63.529412%);fill-opacity:1;" d="M 250.488281 228.304688 L 269.179688 279.660156 C 271.867188 287.046875 280.035156 290.855469 287.421875 288.167969 C 294.804688 285.476562 298.613281 277.3125 295.925781 269.925781 L 277.234375 218.570312 C 276.335938 216.101562 273.605469 214.828125 271.132812 215.726562 L 253.332031 222.203125 C 250.863281 223.105469 249.589844 225.835938 250.488281 228.304688 Z M 250.488281 228.304688 "/>
<path style=" stroke:none;fill-rule:nonzero;fill:rgb(91.372549%,28.235294%,55.686275%);fill-opacity:1;" d="M 295.925781 269.925781 L 277.234375 218.570312 C 276.335938 216.097656 273.605469 214.828125 271.132812 215.726562 L 261.851562 219.105469 C 263.289062 218.578125 265.1875 220.15625 266.085938 222.628906 L 284.777344 273.984375 C 287.027344 280.160156 286.46875 286.230469 283.710938 288.976562 C 284.949219 288.875 286.195312 288.609375 287.421875 288.164062 C 294.808594 285.476562 298.613281 277.3125 295.925781 269.925781 Z M 295.925781 269.925781 "/>
<path style=" stroke:none;fill-rule:nonzero;fill:rgb(37.647059%,39.607843%,44.705882%);fill-opacity:1;" d="M 284.523438 238.59375 L 281.316406 229.785156 L 254.570312 239.519531 L 257.777344 248.328125 Z M 284.523438 238.59375 "/>
<path style=" stroke:none;fill-rule:nonzero;fill:rgb(23.137255%,25.882353%,32.941176%);fill-opacity:1;" d="M 281.316406 229.785156 L 270.167969 233.84375 L 273.375 242.652344 L 284.523438 238.59375 Z M 281.316406 229.785156 "/>
<path style=" stroke:none;fill-rule:nonzero;fill:rgb(100%,47.058824%,43.921569%);fill-opacity:1;" d="M 72.109375 204.054688 L 72.109375 250.21875 L 29.582031 250.21875 L 29.582031 184.476562 C 29.582031 183.679688 29.761719 182.949219 30.128906 182.308594 C 32.769531 177.738281 44.179688 179.390625 55.617188 185.996094 C 65.453125 191.671875 72.109375 199.160156 72.109375 204.054688 Z M 72.109375 204.054688 "/>
<path style=" stroke:none;fill-rule:nonzero;fill:rgb(84.313725%,20.784314%,18.039216%);fill-opacity:1;" d="M 57.859375 187.359375 L 57.859375 250.21875 L 72.109375 250.21875 L 72.109375 204.054688 C 72.109375 199.542969 66.449219 192.828125 57.859375 187.359375 Z M 57.859375 187.359375 "/>
<path style=" stroke:none;fill-rule:nonzero;fill:rgb(47.058824%,72.941176%,96.470588%);fill-opacity:1;" d="M 72.152344 250.21875 L 29.539062 250.21875 C 26.046875 250.21875 23.210938 253.054688 23.210938 256.546875 L 23.210938 313.671875 C 23.210938 317.167969 26.042969 320 29.539062 320 L 72.152344 320 C 75.648438 320 78.480469 317.167969 78.480469 313.671875 L 78.480469 256.546875 C 78.480469 253.050781 75.648438 250.21875 72.152344 250.21875 Z M 72.152344 250.21875 "/>
<path style=" stroke:none;fill-rule:nonzero;fill:rgb(9.411765%,52.156863%,85.490196%);fill-opacity:1;" d="M 72.152344 250.21875 L 57.898438 250.21875 C 61.394531 250.21875 64.230469 253.054688 64.230469 256.546875 L 64.230469 313.671875 C 64.230469 317.167969 61.394531 320 57.898438 320 L 72.152344 320 C 75.648438 320 78.480469 317.167969 78.480469 313.671875 L 78.480469 256.546875 C 78.480469 253.050781 75.648438 250.21875 72.152344 250.21875 Z M 72.152344 250.21875 "/>
<path style=" stroke:none;fill-rule:nonzero;fill:rgb(100%,59.215686%,58.039216%);fill-opacity:1;" d="M 72.109375 204.054688 C 72.109375 204.859375 71.933594 205.59375 71.558594 206.230469 C 68.921875 210.800781 57.503906 209.148438 46.066406 202.542969 C 36.234375 196.867188 29.582031 189.375 29.582031 184.476562 C 29.582031 183.679688 29.761719 182.949219 30.128906 182.308594 C 32.769531 177.738281 44.179688 179.390625 55.617188 185.996094 C 65.453125 191.671875 72.109375 199.160156 72.109375 204.054688 Z M 72.109375 204.054688 "/>
<path style=" stroke:none;fill-rule:nonzero;fill:rgb(37.647059%,39.607843%,44.705882%);fill-opacity:1;" d="M 23.210938 264.625 L 78.480469 264.625 L 78.480469 274 L 23.210938 274 Z M 23.210938 264.625 "/>
<path style=" stroke:none;fill-rule:nonzero;fill:rgb(23.137255%,25.882353%,32.941176%);fill-opacity:1;" d="M 64.230469 264.625 L 78.480469 264.625 L 78.480469 274 L 64.230469 274 Z M 64.230469 264.625 "/>
</g>
</svg>
